<svg style="display: none;" aria-hidden="true" xmlns="http://www.w3.org/2000/svg" xmlns:xlink="http://www.w3.org/1999/xlink"><symbol viewBox="0 0 12 12" fill="none" id="archive" xmlns="http://www.w3.org/2000/svg">
<path d="M6 10L8.66667 7.33333L7.73333 6.4L6.66667 7.46667V4.66667H5.33333V7.46667L4.26667 6.4L3.33333 7.33333L6 10ZM1.33333 3.33333V10.6667H10.6667V3.33333H1.33333ZM1.33333 12C0.966667 12 0.65 11.8722 0.383334 11.6167C0.127778 11.35 0 11.0333 0 10.6667V2.35C0 2.19444 0.0222224 2.04444 0.0666669 1.9C0.122222 1.75556 0.2 1.62222 0.3 1.5L1.13333 0.483334C1.25556 0.327778 1.40556 0.211111 1.58333 0.133333C1.77222 0.0444444 1.96667 0 2.16667 0H9.83333C10.0333 0 10.2222 0.0444444 10.4 0.133333C10.5889 0.211111 10.7444 0.327778 10.8667 0.483334L11.7 1.5C11.8 1.62222 11.8722 1.75556 11.9167 1.9C11.9722 2.04444 12 2.19444 12 2.35V10.6667C12 11.0333 11.8667 11.35 11.6 11.6167C11.3444 11.8722 11.0333 12 10.6667 12H1.33333ZM1.6 2H10.4L9.83333 1.33333H2.16667L1.6 2Z" fill="#090D0B"/>
</symbol><symbol viewBox="0 0 16 16" fill="none" id="arr-top" xmlns="http://www.w3.org/2000/svg">
<path d="M8 15V1M8 1L1 8M8 1L15 8" stroke="#FF8800" stroke-linecap="round" stroke-linejoin="round"/>
</symbol><symbol viewBox="0 0 26 18" fill="none" id="burger" xmlns="http://www.w3.org/2000/svg">
<path d="M1 9H25M1 1H25M1 17H25" stroke="#090D0B" stroke-width="2" stroke-linecap="round" stroke-linejoin="round"/>
</symbol><symbol viewBox="0 0 12 10" fill="none" id="check" xmlns="http://www.w3.org/2000/svg">
<path d="M4 9.4L0 5.4L1.4 4L4 6.6L10.6 0L12 1.4L4 9.4Z" fill="white"/>
</symbol><symbol viewBox="0 0 10 10" fill="none" id="close" xmlns="http://www.w3.org/2000/svg">
<path d="M9 1L1 9M1 1L9 9" stroke="#090D0B" stroke-width="2" stroke-linecap="round" stroke-linejoin="round"/>
</symbol><symbol viewBox="0 0 10 10" fill="none" id="close-red" xmlns="http://www.w3.org/2000/svg">
<path d="M9 1L1 9M1 1L9 9" stroke="#E6231E" stroke-width="1.33333" stroke-linecap="round" stroke-linejoin="round"/>
</symbol><symbol viewBox="0 0 12 12" fill="none" id="del" xmlns="http://www.w3.org/2000/svg">
<path d="M2.66699 12C2.30033 12 1.98644 11.8694 1.72533 11.6083C1.46421 11.3472 1.33366 11.0333 1.33366 10.6667V2H0.666992V0.666667H4.00033V0H8.00033V0.666667H11.3337V2H10.667V10.6667C10.667 11.0333 10.5364 11.3472 10.2753 11.6083C10.0142 11.8694 9.70032 12 9.33366 12H2.66699ZM9.33366 2H2.66699V10.6667H9.33366V2ZM4.00033 9.33333H5.33366V3.33333H4.00033V9.33333ZM6.66699 9.33333H8.00033V3.33333H6.66699V9.33333Z" fill="#090D0B"/>
</symbol><symbol viewBox="0 0 12 12" fill="none" id="edit" xmlns="http://www.w3.org/2000/svg">
<path d="M1.33333 10.6667H2.28333L8.8 4.15L7.85 3.2L1.33333 9.71667V10.6667ZM0 12V9.16667L8.8 0.383333C8.93333 0.261111 9.08056 0.166667 9.24167 0.1C9.40278 0.0333333 9.57222 0 9.75 0C9.92778 0 10.1 0.0333333 10.2667 0.1C10.4333 0.166667 10.5778 0.266667 10.7 0.4L11.6167 1.33333C11.75 1.45556 11.8472 1.6 11.9083 1.76667C11.9694 1.93333 12 2.1 12 2.26667C12 2.44444 11.9694 2.61389 11.9083 2.775C11.8472 2.93611 11.75 3.08333 11.6167 3.21667L2.83333 12H0ZM8.31667 3.68333L7.85 3.2L8.8 4.15L8.31667 3.68333Z" fill="#090D0B"/>
</symbol><symbol viewBox="0 0 14 14" fill="none" id="key" xmlns="http://www.w3.org/2000/svg">
<path d="M6.06278 4.96638C6.35444 4.6803 6.50028 4.33256 6.50028 3.92315C6.50028 3.51501 6.35444 3.1679 6.06278 2.88182C5.77111 2.59574 5.41657 2.4527 4.99917 2.4527C4.58306 2.4527 4.22917 2.59574 3.9375 2.88182C3.64583 3.1679 3.5 3.51501 3.5 3.92315C3.5 4.13803 3.54926 4.35036 3.64778 4.56015C3.43518 4.46225 3.21935 4.4133 3.00028 4.4133C2.58287 4.4133 2.22833 4.55634 1.93667 4.84242C1.645 5.12849 1.49917 5.47624 1.49917 5.88565C1.49917 6.29379 1.645 6.6409 1.93667 6.92698C2.22833 7.21306 2.58287 7.3561 3.00028 7.3561C3.41639 7.3561 3.77028 7.21306 4.06194 6.92698C4.35361 6.6409 4.49944 6.29379 4.49944 5.88565C4.49944 5.67077 4.45018 5.45844 4.35167 5.24865C4.56556 5.34655 4.78139 5.3955 4.99917 5.3955C5.41657 5.3955 5.77111 5.25246 6.06278 4.96638ZM13.1483 9.3186C13.1483 9.40506 13.0206 9.57353 12.7653 9.82401C12.5099 10.0745 12.3381 10.1997 12.25 10.1997C12.2033 10.1997 12.1288 10.1584 12.0264 10.0758C11.9253 9.99438 11.8306 9.91047 11.7425 9.82401C11.6544 9.73755 11.5539 9.6352 11.4411 9.51695C11.3296 9.39998 11.2661 9.33386 11.2506 9.3186L10.5 10.0529L12.2189 11.7388C12.3641 11.8825 12.4367 12.0567 12.4367 12.2614C12.4367 12.475 12.3356 12.6816 12.1333 12.8812C11.9298 13.0809 11.7185 13.1807 11.4994 13.1807C11.292 13.1807 11.1151 13.1088 10.9686 12.9652L5.72639 7.82336C4.80991 8.49342 3.85972 8.82845 2.87583 8.82845C2.02676 8.82845 1.33519 8.56653 0.801111 8.04269C0.267037 7.51885 0 6.84052 0 6.00771C0 5.19016 0.247593 4.39041 0.742778 3.60846C1.23667 2.82778 1.88222 2.19459 2.67944 1.7089C3.47667 1.2232 4.29204 0.980347 5.12556 0.980347C5.97463 0.980347 6.66556 1.24227 7.19833 1.76611C7.73241 2.28995 7.99944 2.96828 7.99944 3.80109C7.99944 4.76613 7.65852 5.69811 6.97667 6.59703L9.74944 9.3186L10.5 8.58242C10.4844 8.56717 10.417 8.50487 10.2978 8.39552C10.1772 8.2849 10.0729 8.18636 9.98472 8.0999C9.89657 8.01344 9.81037 7.91999 9.72611 7.81955C9.64315 7.72037 9.60167 7.6479 9.60167 7.60213C9.60167 7.5144 9.72935 7.34593 9.98472 7.09672C10.2401 6.84624 10.4119 6.721 10.5 6.721C10.5674 6.721 10.627 6.74643 10.6789 6.79729C10.7113 6.82781 10.8312 6.9416 11.0386 7.13868C11.2473 7.33448 11.4612 7.53728 11.6803 7.74707C11.8981 7.95686 12.123 8.17683 12.355 8.40696C12.587 8.63583 12.7776 8.83481 12.9267 9.00391C13.0744 9.17302 13.1483 9.27792 13.1483 9.3186Z" fill="white"/>
</symbol><symbol viewBox="0 0 24 24" fill="none" id="like" xmlns="http://www.w3.org/2000/svg">
<path d="M20.84 4.60987C20.3292 4.09888 19.7228 3.69352 19.0554 3.41696C18.3879 3.14039 17.6725 2.99805 16.95 2.99805C16.2275 2.99805 15.5121 3.14039 14.8446 3.41696C14.1772 3.69352 13.5708 4.09888 13.06 4.60987L12 5.66987L10.94 4.60987C9.90831 3.57818 8.50903 2.99858 7.05 2.99858C5.59096 2.99858 4.19169 3.57818 3.16 4.60987C2.1283 5.64157 1.54871 7.04084 1.54871 8.49987C1.54871 9.95891 2.1283 11.3582 3.16 12.3899L12 21.2299L20.84 12.3899C21.351 11.8791 21.7564 11.2727 22.0329 10.6052C22.3095 9.93777 22.4518 9.22236 22.4518 8.49987C22.4518 7.77739 22.3095 7.06198 22.0329 6.39452C21.7564 5.72706 21.351 5.12063 20.84 4.60987Z" stroke="white" stroke-width="2" stroke-linecap="round" stroke-linejoin="round"/>
</symbol><symbol viewBox="0 0 89 16" fill="none" id="logo" xmlns="http://www.w3.org/2000/svg">
<path d="M1.49012e-08 15V3.36C1.49012e-08 3.06667 0.04 2.76667 0.12 2.46C0.2 2.15333 0.373333 1.86667 0.64 1.6C0.933333 1.32 1.24667 1.15333 1.58 1.1C1.91333 1.03333 2.20667 0.999999 2.46 0.999999H12.88V4.4H5.38C5.27333 4.4 5.16 4.41333 5.04 4.44C4.93333 4.45333 4.83333 4.50667 4.74 4.6C4.66 4.68 4.6 4.78667 4.56 4.92C4.53333 5.05333 4.52 5.19333 4.52 5.34V6.32H10.62V9.48H4.52V15H1.49012e-08ZM13.9258 15V0.999999H18.4458V15H13.9258ZM32.8492 13.28C32.7692 13.5333 32.6759 13.7733 32.5692 14C32.4626 14.2267 32.3092 14.4267 32.1092 14.6C31.9226 14.7733 31.6692 14.9067 31.3492 15C31.0426 15.1067 30.6426 15.16 30.1492 15.16C29.6559 15.16 29.2492 15.1067 28.9292 15C28.6226 14.9067 28.3692 14.7733 28.1692 14.6C27.9826 14.4267 27.8359 14.2267 27.7292 14C27.6226 13.7733 27.5292 13.5333 27.4492 13.28L25.2892 6.52C25.2492 6.38667 25.2026 6.27333 25.1492 6.18C25.1092 6.07333 25.0626 6.02 25.0092 6.02C24.9159 6.02 24.8626 6.08 24.8492 6.2C24.8492 6.32 24.8492 6.41333 24.8492 6.48L24.9892 15H20.4492V3.3C20.4492 2.68667 20.5959 2.21333 20.8892 1.88C21.1826 1.54667 21.5159 1.30667 21.8892 1.16C22.2759 0.999999 22.6559 0.906666 23.0292 0.879999C23.4159 0.853333 23.7026 0.84 23.8892 0.84C24.1826 0.84 24.4959 0.86 24.8292 0.899999C25.1759 0.939999 25.5159 1.04 25.8492 1.2C26.1826 1.34667 26.4892 1.57333 26.7692 1.88C27.0492 2.18667 27.2826 2.61333 27.4692 3.16L29.7292 9.96C29.7426 10 29.7626 10.0533 29.7892 10.12C29.8159 10.1867 29.8492 10.26 29.8892 10.34C29.9292 10.4067 29.9692 10.4667 30.0092 10.52C30.0626 10.5733 30.1092 10.6 30.1492 10.6C30.1892 10.6 30.2292 10.5733 30.2692 10.52C30.3226 10.4667 30.3692 10.4067 30.4092 10.34C30.4492 10.26 30.4826 10.1867 30.5092 10.12C30.5359 10.0533 30.5559 10 30.5692 9.96L32.8292 3.16C33.0026 2.61333 33.2292 2.18667 33.5092 1.88C33.8026 1.57333 34.1159 1.34667 34.4492 1.2C34.7826 1.04 35.1159 0.939999 35.4492 0.899999C35.7959 0.86 36.1226 0.84 36.4292 0.84C37.2292 0.84 37.8559 0.926666 38.3092 1.1C38.7626 1.27333 39.1026 1.48667 39.3292 1.74C39.5692 1.99333 39.7159 2.26667 39.7692 2.56C39.8359 2.84 39.8692 3.08667 39.8692 3.3V15H35.3092L35.4692 6.48C35.4692 6.29333 35.4492 6.17333 35.4092 6.12C35.3692 6.05333 35.3292 6.02 35.2892 6.02C35.2492 6.02 35.2092 6.06 35.1692 6.14C35.1292 6.20667 35.0759 6.33333 35.0092 6.52L32.8492 13.28ZM46.395 10.48C46.395 10.72 46.4083 10.9067 46.435 11.04C46.4617 11.16 46.5017 11.2533 46.555 11.32C46.6483 11.4267 46.7817 11.4867 46.955 11.5C47.1417 11.5133 47.2883 11.52 47.395 11.52H49.795C50.2217 11.52 50.515 11.4867 50.675 11.42C50.8483 11.3533 50.955 11.2933 50.995 11.24C51.0617 11.16 51.1217 11.04 51.175 10.88C51.2283 10.72 51.255 10.5667 51.255 10.42C51.255 10.18 51.195 9.98 51.075 9.82C50.9283 9.62 50.7417 9.50667 50.515 9.48C50.3017 9.44 50.1017 9.42 49.915 9.42H46.395V10.48ZM49.755 6.38C49.9417 6.38 50.135 6.36667 50.335 6.34C50.5483 6.3 50.715 6.18667 50.835 6C50.8883 5.90667 50.9217 5.8 50.935 5.68C50.9617 5.56 50.975 5.45333 50.975 5.36C50.975 5.22667 50.955 5.11333 50.915 5.02C50.875 4.91333 50.8217 4.82667 50.755 4.76C50.6083 4.61333 50.435 4.53333 50.235 4.52C50.0483 4.49333 49.8817 4.48 49.735 4.48H47.155C47.0483 4.48 46.9483 4.48667 46.855 4.5C46.7617 4.51333 46.6683 4.56 46.575 4.64C46.4683 4.73333 46.4083 4.83333 46.395 4.94C46.395 5.03333 46.395 5.13333 46.395 5.24V6.38H49.755ZM41.875 3.26C41.875 2.58 42.035 2.06 42.355 1.7C42.5283 1.5 42.755 1.33333 43.035 1.2C43.3283 1.06667 43.6283 0.999999 43.935 0.999999H51.535C51.7883 0.999999 52.0483 1.01333 52.315 1.04C52.595 1.05333 52.8683 1.09333 53.135 1.16C53.4017 1.21333 53.655 1.3 53.895 1.42C54.1483 1.54 54.375 1.70667 54.575 1.92C54.775 2.12 54.9283 2.34667 55.035 2.6C55.155 2.85333 55.2417 3.11333 55.295 3.38C55.3617 3.64667 55.4017 3.91333 55.415 4.18C55.4417 4.44667 55.455 4.69333 55.455 4.92C55.455 5.30667 55.415 5.68 55.335 6.04C55.2683 6.4 55.075 6.75333 54.755 7.1C54.3683 7.52667 53.9017 7.76 53.355 7.8V7.88C53.715 7.90667 54.035 7.99333 54.315 8.14C54.595 8.27333 54.8283 8.42667 55.015 8.6C55.3883 8.96 55.6083 9.36 55.675 9.8C55.7417 10.2267 55.775 10.6533 55.775 11.08C55.775 11.3067 55.7683 11.5467 55.755 11.8C55.755 12.04 55.7283 12.2867 55.675 12.54C55.6217 12.7933 55.535 13.0467 55.415 13.3C55.3083 13.5533 55.1483 13.7933 54.935 14.02C54.7083 14.26 54.475 14.4467 54.235 14.58C53.995 14.7133 53.7417 14.8133 53.475 14.88C53.2217 14.9333 52.9483 14.9667 52.655 14.98C52.375 14.9933 52.0883 15 51.795 15H44.475C44.315 15 44.1483 15 43.975 15C43.8017 15 43.6217 14.98 43.435 14.94C43.2483 14.9 43.0683 14.8333 42.895 14.74C42.7217 14.6467 42.555 14.5133 42.395 14.34C42.2217 14.14 42.0883 13.9 41.995 13.62C41.915 13.3267 41.875 13.0467 41.875 12.78V3.26ZM57.3828 3.68C57.3828 3.36 57.4095 3.02 57.4628 2.66C57.5161 2.28667 57.6695 1.96 57.9228 1.68C58.1895 1.38667 58.5028 1.2 58.8628 1.12C59.2228 1.04 59.5361 0.999999 59.8028 0.999999H67.4228C67.6361 0.999999 67.8895 1.00667 68.1828 1.02C68.4761 1.03333 68.7761 1.08667 69.0828 1.18C69.3895 1.26 69.6895 1.39333 69.9828 1.58C70.2761 1.76667 70.5361 2.02667 70.7628 2.36C71.0695 2.81333 71.2628 3.32667 71.3428 3.9C71.4361 4.47333 71.4828 5.02667 71.4828 5.56C71.4828 5.72 71.4761 5.94 71.4628 6.22C71.4628 6.48667 71.4428 6.78 71.4028 7.1C71.3628 7.42 71.3095 7.74667 71.2428 8.08C71.1761 8.41333 71.0828 8.72 70.9628 9C70.6961 9.62667 70.3295 10.0733 69.8628 10.34C69.4095 10.6067 68.9095 10.74 68.3628 10.74H67.7628V10.82L71.7628 15H66.3228L63.6228 11.36C63.3961 11.0533 63.1761 10.7467 62.9628 10.44C62.7628 10.1333 62.6628 9.80667 62.6628 9.46V9.16C62.6628 8.69333 62.8495 8.31333 63.2228 8.02C63.6095 7.72667 64.0961 7.58 64.6828 7.58H65.4028C65.6028 7.58 65.8228 7.56 66.0628 7.52C66.3028 7.46667 66.5028 7.34667 66.6628 7.16C66.7695 7.01333 66.8428 6.83333 66.8828 6.62C66.9361 6.39333 66.9628 6.18667 66.9628 6C66.9628 5.61333 66.9161 5.33333 66.8228 5.16C66.7428 4.98667 66.6761 4.87333 66.6228 4.82C66.4495 4.63333 66.2495 4.53333 66.0228 4.52C65.7961 4.49333 65.5761 4.48 65.3628 4.48H62.8628C62.7295 4.48 62.6028 4.49333 62.4828 4.52C62.3761 4.53333 62.2695 4.59333 62.1628 4.7C62.0161 4.83333 61.9361 4.97333 61.9228 5.12C61.9095 5.25333 61.9028 5.40667 61.9028 5.58V15H57.3828V3.68ZM78.5041 8.92H81.3841L80.1241 5.38C80.0974 5.32667 80.0641 5.26667 80.0241 5.2C79.9974 5.12 79.9707 5.08 79.9441 5.08C79.9174 5.08 79.8841 5.12 79.8441 5.2C79.8174 5.26667 79.7907 5.32667 79.7641 5.38L78.5041 8.92ZM76.7441 2.54C76.8507 2.28667 76.9774 2.05333 77.1241 1.84C77.2707 1.62667 77.4641 1.44667 77.7041 1.3C77.9441 1.15333 78.2374 1.04 78.5841 0.96C78.9441 0.88 79.3974 0.84 79.9441 0.84C80.2774 0.84 80.5974 0.86 80.9041 0.899999C81.2241 0.926666 81.5174 1 81.7841 1.12C82.0641 1.22667 82.3174 1.39333 82.5441 1.62C82.7841 1.84667 82.9841 2.15333 83.1441 2.54L88.3241 15H83.5641L82.4641 12.12H77.4241L76.3241 15H71.5641L76.7441 2.54Z" fill="white"/>
</symbol><symbol viewBox="0 0 14 20" fill="none" id="logo-min" xmlns="http://www.w3.org/2000/svg">
<path d="M1 18V6.36C1 6.06667 1.04 5.76667 1.12 5.46C1.2 5.15333 1.37333 4.86667 1.64 4.6C1.93333 4.32 2.24667 4.15333 2.58 4.1C2.91333 4.03333 3.20667 4 3.46 4H13.88V7.4H6.38C6.27333 7.4 6.16 7.41333 6.04 7.44C5.93333 7.45333 5.83333 7.50667 5.74 7.6C5.66 7.68 5.6 7.78667 5.56 7.92C5.53333 8.05333 5.52 8.19333 5.52 8.34V9.32H11.62V12.48H5.52V18H1Z" fill="white"/>
</symbol><symbol viewBox="0 0 12 4" fill="none" id="more" xmlns="http://www.w3.org/2000/svg">
<path d="M6.00008 2.66659C6.36827 2.66659 6.66675 2.36811 6.66675 1.99992C6.66675 1.63173 6.36827 1.33325 6.00008 1.33325C5.63189 1.33325 5.33341 1.63173 5.33341 1.99992C5.33341 2.36811 5.63189 2.66659 6.00008 2.66659Z" stroke="#090D0B" stroke-linecap="round" stroke-linejoin="round"/>
<path d="M10.6667 2.66659C11.0349 2.66659 11.3334 2.36811 11.3334 1.99992C11.3334 1.63173 11.0349 1.33325 10.6667 1.33325C10.2986 1.33325 10.0001 1.63173 10.0001 1.99992C10.0001 2.36811 10.2986 2.66659 10.6667 2.66659Z" stroke="#090D0B" stroke-linecap="round" stroke-linejoin="round"/>
<path d="M1.33341 2.66659C1.7016 2.66659 2.00008 2.36811 2.00008 1.99992C2.00008 1.63173 1.7016 1.33325 1.33341 1.33325C0.965225 1.33325 0.666748 1.63173 0.666748 1.99992C0.666748 2.36811 0.965225 2.66659 1.33341 2.66659Z" stroke="#090D0B" stroke-linecap="round" stroke-linejoin="round"/>
</symbol><symbol viewBox="0 0 12 12" fill="none" id="recover" xmlns="http://www.w3.org/2000/svg">
<path d="M5.33333 7.33333V4.56667L4.26667 5.63333L3.33333 4.66667L6 2L8.66667 4.66667L7.73333 5.63333L6.66667 4.56667V7.33333H5.33333ZM1.33333 12C0.966667 12 0.65 11.8722 0.383334 11.6167C0.127778 11.35 0 11.0333 0 10.6667V1.33333C0 0.966667 0.127778 0.655556 0.383334 0.400001C0.65 0.133334 0.966667 0 1.33333 0H10.6667C11.0333 0 11.3444 0.133334 11.6 0.400001C11.8667 0.655556 12 0.966667 12 1.33333V10.6667C12 11.0333 11.8667 11.35 11.6 11.6167C11.3444 11.8722 11.0333 12 10.6667 12H1.33333ZM1.33333 10.6667H10.6667V8.66667H8.66667C8.33333 9.08889 7.93333 9.41667 7.46667 9.65C7.01111 9.88333 6.52222 10 6 10C5.47778 10 4.98333 9.88333 4.51667 9.65C4.06111 9.41667 3.66667 9.08889 3.33333 8.66667H1.33333V10.6667ZM6 8.66667C6.42222 8.66667 6.80556 8.54444 7.15 8.3C7.49444 8.05556 7.73333 7.73333 7.86667 7.33333H10.6667V1.33333H1.33333V7.33333H4.13333C4.26667 7.73333 4.50556 8.05556 4.85 8.3C5.19444 8.54444 5.57778 8.66667 6 8.66667ZM1.33333 10.6667H3.33333C3.66667 10.6667 4.06111 10.6667 4.51667 10.6667C4.98333 10.6667 5.47778 10.6667 6 10.6667C6.52222 10.6667 7.01111 10.6667 7.46667 10.6667C7.93333 10.6667 8.33333 10.6667 8.66667 10.6667H10.6667H1.33333Z" fill="#090D0B"/>
</symbol><symbol viewBox="0 0 16 13" fill="none" id="registration" xmlns="http://www.w3.org/2000/svg">
<path d="M7.62028 6.0039C7.03435 6.5786 6.32787 6.86595 5.50083 6.86595C4.6725 6.86595 3.96537 6.5786 3.37944 6.0039C2.79352 5.4292 2.50056 4.73561 2.50056 3.92315C2.50056 3.11068 2.79352 2.4171 3.37944 1.8424C3.96537 1.2677 4.6725 0.980347 5.50083 0.980347C6.32787 0.980347 7.03435 1.2677 7.62028 1.8424C8.2062 2.4171 8.49917 3.11068 8.49917 3.92315C8.49917 4.73561 8.2062 5.4292 7.62028 6.0039ZM13.0006 5.14947V7.84625H15.75C15.8174 7.84625 15.8757 7.87041 15.925 7.91872C15.9756 7.96831 16.0008 8.02616 16.0008 8.09228V9.56272C16.0008 9.63011 15.9756 9.68796 15.925 9.73628C15.8757 9.78459 15.8174 9.80875 15.75 9.80875H13.0006V12.5055C13.0006 12.5716 12.9759 12.6295 12.9267 12.6791C12.8761 12.7274 12.8171 12.7516 12.7497 12.7516H11.2506C11.1819 12.7516 11.1229 12.7274 11.0736 12.6791C11.0244 12.6295 10.9997 12.5716 10.9997 12.5055V9.80875H8.25028C8.18287 9.80875 8.12389 9.78459 8.07333 9.73628C8.02407 9.68796 7.99944 9.63011 7.99944 9.56272V8.09228C7.99944 8.02616 8.02407 7.96831 8.07333 7.91872C8.12389 7.87041 8.18287 7.84625 8.25028 7.84625H10.9997V5.14947C10.9997 5.08336 11.0244 5.02614 11.0736 4.97783C11.1229 4.92824 11.1819 4.90345 11.2506 4.90345H12.7497C12.8171 4.90345 12.8761 4.92824 12.9267 4.97783C12.9759 5.02614 13.0006 5.08336 13.0006 5.14947ZM7.25083 8.09228V9.56272C7.25083 9.82846 7.34935 10.0586 7.54639 10.2531C7.74472 10.4477 7.97935 10.5449 8.25028 10.5449H10.2492V12.3682C9.89528 12.6238 9.45 12.7516 8.91333 12.7516H2.08639C1.45639 12.7516 0.950833 12.5748 0.569722 12.2214C0.189907 11.8692 0 11.3841 0 10.7662C0 10.4953 0.00907407 10.2309 0.0272222 9.97277C0.0453704 9.71466 0.0816667 9.43621 0.136111 9.13742C0.191852 8.83862 0.261204 8.56145 0.344167 8.30588C0.42713 8.05032 0.539259 7.80175 0.680556 7.56017C0.820556 7.31732 0.981944 7.11007 1.16472 6.93842C1.3462 6.76805 1.56852 6.63136 1.83167 6.52838C2.09481 6.42666 2.38519 6.3758 2.70278 6.3758C2.80259 6.3758 2.90435 6.41903 3.00806 6.50549C3.41898 6.817 3.82148 7.05095 4.21556 7.20734C4.60833 7.36246 5.03676 7.44001 5.50083 7.44001C5.96361 7.44001 6.39204 7.36246 6.78611 7.20734C7.17889 7.05095 7.58074 6.817 7.99167 6.50549C8.09667 6.41903 8.19843 6.3758 8.29694 6.3758C8.98398 6.3758 9.54917 6.62119 9.9925 7.11198H8.25028C7.97935 7.11198 7.74472 7.20861 7.54639 7.40187C7.34935 7.59641 7.25083 7.82654 7.25083 8.09228Z" fill="white"/>
</symbol><symbol viewBox="0 0 84 86" fill="none" id="request" xmlns="http://www.w3.org/2000/svg">
<path d="M55 84H2V12H4V81C4 81.2652 4.10536 81.5196 4.29289 81.7071C4.48043 81.8947 4.73478 82 5 82H47C47.2652 82 47.5196 81.8947 47.7071 81.7071C47.8946 81.5196 48 81.2652 48 81C48 80.7348 47.8946 80.4804 47.7071 80.2929C47.5196 80.1054 47.2652 80 47 80H6V12H9V17C9 17.2652 9.10536 17.5196 9.29289 17.7071C9.48043 17.8946 9.73478 18 10 18H46C46.2652 18 46.5196 17.8946 46.7071 17.7071C46.8946 17.5196 47 17.2652 47 17V12H50V47C50 47.2652 50.1054 47.5196 50.2929 47.7071C50.4804 47.8946 50.7348 48 51 48C51.2652 48 51.5196 47.8946 51.7071 47.7071C51.8946 47.5196 52 47.2652 52 47V12H54V47C54 47.2652 54.1054 47.5196 54.2929 47.7071C54.4804 47.8946 54.7348 48 55 48C55.2652 48 55.5196 47.8946 55.7071 47.7071C55.8946 47.5196 56 47.2652 56 47V11C56 10.7348 55.8946 10.4804 55.7071 10.2929C55.5196 10.1054 55.2652 10 55 10H47V9C47 8.73479 46.8946 8.48043 46.7071 8.2929C46.5196 8.10536 46.2652 8 46 8H36.9448C36.6991 5.79953 35.6509 3.76684 34.0006 2.29064C32.3504 0.814427 30.2139 -0.00170898 27.9998 -0.00170898C25.7857 -0.00170898 23.6492 0.814427 21.999 2.29064C20.3487 3.76684 19.3005 5.79953 19.0548 8H10C9.73478 8 9.48043 8.10536 9.29289 8.2929C9.10536 8.48043 9 8.73479 9 9V10H1C0.734784 10 0.48043 10.1054 0.292893 10.2929C0.105357 10.4804 0 10.7348 0 11V85C0 85.2652 0.105357 85.5196 0.292893 85.7071C0.48043 85.8947 0.734784 86 1 86H55C55.2652 86 55.5196 85.8947 55.7071 85.7071C55.8946 85.5196 56 85.2652 56 85C56 84.7348 55.8946 84.4804 55.7071 84.2929C55.5196 84.1054 55.2652 84 55 84ZM11 10H20C20.2652 10 20.5196 9.89465 20.7071 9.70711C20.8946 9.51957 21 9.26522 21 9C21 7.14349 21.7375 5.36301 23.0503 4.05026C24.363 2.7375 26.1435 2 28 2C29.8565 2 31.637 2.7375 32.9497 4.05026C34.2625 5.36301 35 7.14349 35 9C35 9.26522 35.1054 9.51957 35.2929 9.70711C35.4804 9.89465 35.7348 10 36 10H45V16H11V10Z" fill="#5C9248"/>
<path d="M28 14C28.9889 14 29.9556 13.7068 30.7779 13.1573C31.6001 12.6079 32.241 11.827 32.6194 10.9134C32.9978 9.99979 33.0969 8.99446 32.9039 8.02455C32.711 7.05465 32.2348 6.16373 31.5355 5.46447C30.8363 4.76521 29.9454 4.289 28.9755 4.09608C28.0055 3.90315 27.0002 4.00217 26.0866 4.3806C25.173 4.75904 24.3921 5.39991 23.8427 6.22215C23.2932 7.0444 23 8.0111 23 9C23.0016 10.3256 23.5288 11.5965 24.4662 12.5338C25.4035 13.4712 26.6744 13.9984 28 14ZM28 6C28.5933 6 29.1734 6.17595 29.6667 6.50559C30.1601 6.83524 30.5446 7.30377 30.7716 7.85195C30.9987 8.40013 31.0581 9.00333 30.9424 9.58527C30.8266 10.1672 30.5409 10.7018 30.1213 11.1213C29.7018 11.5409 29.1672 11.8266 28.5853 11.9424C28.0033 12.0581 27.4001 11.9987 26.8519 11.7716C26.3038 11.5446 25.8352 11.1601 25.5056 10.6667C25.1759 10.1734 25 9.59335 25 9C25.0009 8.20462 25.3172 7.44207 25.8796 6.87965C26.4421 6.31723 27.2046 6.00088 28 6Z" fill="#5C9248"/>
<path d="M16 21H9C8.73478 21 8.48043 21.1054 8.29289 21.2929C8.10536 21.4804 8 21.7348 8 22V32C8 32.2652 8.10536 32.5196 8.29289 32.7071C8.48043 32.8946 8.73478 33 9 33H19C19.2652 33 19.5196 32.8946 19.7071 32.7071C19.8946 32.5196 20 32.2652 20 32V27C20 26.7348 19.8946 26.4804 19.7071 26.2929C19.5196 26.1054 19.2652 26 19 26C18.7348 26 18.4804 26.1054 18.2929 26.2929C18.1054 26.4804 18 26.7348 18 27V31H10V23H16C16.2652 23 16.5196 22.8946 16.7071 22.7071C16.8946 22.5196 17 22.2652 17 22C17 21.7348 16.8946 21.4804 16.7071 21.2929C16.5196 21.1054 16.2652 21 16 21Z" fill="#5C9248"/>
<path d="M12.7069 25.2929C12.5183 25.1108 12.2657 25.01 12.0035 25.0122C11.7413 25.0145 11.4905 25.1197 11.3051 25.3051C11.1197 25.4905 11.0145 25.7413 11.0122 26.0035C11.01 26.2657 11.1108 26.5183 11.2929 26.7069L13.2929 28.7069C13.3857 28.7998 13.496 28.8735 13.6173 28.9238C13.7386 28.974 13.8686 28.9999 13.9999 28.9999C14.1312 28.9999 14.2613 28.974 14.3826 28.9238C14.5039 28.8735 14.6141 28.7998 14.7069 28.7069L19.7069 23.7069C19.8891 23.5183 19.9899 23.2657 19.9876 23.0035C19.9853 22.7413 19.8801 22.4905 19.6947 22.3051C19.5093 22.1197 19.2585 22.0145 18.9963 22.0122C18.7341 22.01 18.4815 22.1108 18.2929 22.2929L13.9999 26.5858L12.7069 25.2929Z" fill="#5C9248"/>
<path d="M8 46C8 46.2652 8.10536 46.5196 8.29289 46.7071C8.48043 46.8946 8.73478 47 9 47H19C19.2652 47 19.5196 46.8946 19.7071 46.7071C19.8946 46.5196 20 46.2652 20 46V41C20 40.7348 19.8946 40.4804 19.7071 40.2929C19.5196 40.1054 19.2652 40 19 40C18.7348 40 18.4804 40.1054 18.2929 40.2929C18.1054 40.4804 18 40.7348 18 41V45H10V37H16C16.2652 37 16.5196 36.8946 16.7071 36.7071C16.8946 36.5196 17 36.2652 17 36C17 35.7348 16.8946 35.4804 16.7071 35.2929C16.5196 35.1054 16.2652 35 16 35H9C8.73478 35 8.48043 35.1054 8.29289 35.2929C8.10536 35.4804 8 35.7348 8 36V46Z" fill="#5C9248"/>
<path d="M18.2929 36.2929L13.9999 40.5858L12.7069 39.2929C12.5183 39.1108 12.2657 39.01 12.0035 39.0122C11.7413 39.0145 11.4905 39.1197 11.3051 39.3051C11.1197 39.4905 11.0145 39.7413 11.0122 40.0035C11.01 40.2657 11.1108 40.5183 11.2929 40.7069L13.2929 42.7069C13.3857 42.7998 13.496 42.8735 13.6173 42.9238C13.7386 42.974 13.8686 42.9999 13.9999 42.9999C14.1312 42.9999 14.2613 42.974 14.3826 42.9238C14.5039 42.8735 14.6141 42.7998 14.7069 42.7069L19.7069 37.7069C19.8891 37.5183 19.9899 37.2657 19.9876 37.0035C19.9853 36.7413 19.8801 36.4905 19.6947 36.3051C19.5093 36.1197 19.2585 36.0145 18.9963 36.0122C18.7341 36.01 18.4815 36.1108 18.2929 36.2929Z" fill="#5C9248"/>
<path d="M8 60C8 60.2652 8.10536 60.5196 8.29289 60.7071C8.48043 60.8946 8.73478 61 9 61H19C19.2652 61 19.5196 60.8946 19.7071 60.7071C19.8946 60.5196 20 60.2652 20 60V55C20 54.7348 19.8946 54.4804 19.7071 54.2929C19.5196 54.1054 19.2652 54 19 54C18.7348 54 18.4804 54.1054 18.2929 54.2929C18.1054 54.4804 18 54.7348 18 55V59H10V51H16C16.2652 51 16.5196 50.8946 16.7071 50.7071C16.8946 50.5196 17 50.2652 17 50C17 49.7348 16.8946 49.4804 16.7071 49.2929C16.5196 49.1054 16.2652 49 16 49H9C8.73478 49 8.48043 49.1054 8.29289 49.2929C8.10536 49.4804 8 49.7348 8 50V60Z" fill="#5C9248"/>
<path d="M18.2929 50.2929L13.9999 54.5858L12.7069 53.2929C12.5183 53.1108 12.2657 53.01 12.0035 53.0122C11.7413 53.0145 11.4905 53.1197 11.3051 53.3051C11.1197 53.4905 11.0145 53.7413 11.0122 54.0035C11.01 54.2657 11.1108 54.5183 11.2929 54.7069L13.2929 56.7069C13.3857 56.7998 13.496 56.8735 13.6173 56.9238C13.7386 56.974 13.8686 56.9999 13.9999 56.9999C14.1312 56.9999 14.2613 56.974 14.3826 56.9238C14.5039 56.8735 14.6141 56.7998 14.7069 56.7069L19.7069 51.7069C19.8891 51.5183 19.9899 51.2657 19.9876 51.0035C19.9853 50.7413 19.8801 50.4905 19.6947 50.3051C19.5093 50.1197 19.2585 50.0145 18.9963 50.0122C18.7341 50.01 18.4815 50.1108 18.2929 50.2929Z" fill="#5C9248"/>
<path d="M47 63H9C8.73478 63 8.48043 63.1054 8.29289 63.2929C8.10536 63.4804 8 63.7348 8 64C8 64.2652 8.10536 64.5196 8.29289 64.7071C8.48043 64.8946 8.73478 65 9 65H47C47.2652 65 47.5196 64.8946 47.7071 64.7071C47.8946 64.5196 48 64.2652 48 64C48 63.7348 47.8946 63.4804 47.7071 63.2929C47.5196 63.1054 47.2652 63 47 63Z" fill="#5C9248"/>
<path d="M47 75H16C15.7348 75 15.4804 75.1054 15.2929 75.2929C15.1054 75.4804 15 75.7348 15 76C15 76.2652 15.1054 76.5196 15.2929 76.7071C15.4804 76.8946 15.7348 77 16 77H47C47.2652 77 47.5196 76.8946 47.7071 76.7071C47.8946 76.5196 48 76.2652 48 76C48 75.7348 47.8946 75.4804 47.7071 75.2929C47.5196 75.1054 47.2652 75 47 75Z" fill="#5C9248"/>
<path d="M47 22H23C22.7348 22 22.4804 22.1054 22.2929 22.2929C22.1054 22.4804 22 22.7348 22 23C22 23.2652 22.1054 23.5196 22.2929 23.7071C22.4804 23.8946 22.7348 24 23 24H47C47.2652 24 47.5196 23.8946 47.7071 23.7071C47.8946 23.5196 48 23.2652 48 23C48 22.7348 47.8946 22.4804 47.7071 22.2929C47.5196 22.1054 47.2652 22 47 22Z" fill="#5C9248"/>
<path d="M23 28H37C37.2652 28 37.5196 27.8946 37.7071 27.7071C37.8946 27.5196 38 27.2652 38 27C38 26.7348 37.8946 26.4804 37.7071 26.2929C37.5196 26.1054 37.2652 26 37 26H23C22.7348 26 22.4804 26.1054 22.2929 26.2929C22.1054 26.4804 22 26.7348 22 27C22 27.2652 22.1054 27.5196 22.2929 27.7071C22.4804 27.8946 22.7348 28 23 28Z" fill="#5C9248"/>
<path d="M23 32H29C29.2652 32 29.5196 31.8946 29.7071 31.7071C29.8946 31.5196 30 31.2652 30 31C30 30.7348 29.8946 30.4804 29.7071 30.2929C29.5196 30.1054 29.2652 30 29 30H23C22.7348 30 22.4804 30.1054 22.2929 30.2929C22.1054 30.4804 22 30.7348 22 31C22 31.2652 22.1054 31.5196 22.2929 31.7071C22.4804 31.8946 22.7348 32 23 32Z" fill="#5C9248"/>
<path d="M47 36H23C22.7348 36 22.4804 36.1054 22.2929 36.2929C22.1054 36.4804 22 36.7348 22 37C22 37.2652 22.1054 37.5196 22.2929 37.7071C22.4804 37.8946 22.7348 38 23 38H47C47.2652 38 47.5196 37.8946 47.7071 37.7071C47.8946 37.5196 48 37.2652 48 37C48 36.7348 47.8946 36.4804 47.7071 36.2929C47.5196 36.1054 47.2652 36 47 36Z" fill="#5C9248"/>
<path d="M23 42H37C37.2652 42 37.5196 41.8946 37.7071 41.7071C37.8946 41.5196 38 41.2652 38 41C38 40.7348 37.8946 40.4804 37.7071 40.2929C37.5196 40.1054 37.2652 40 37 40H23C22.7348 40 22.4804 40.1054 22.2929 40.2929C22.1054 40.4804 22 40.7348 22 41C22 41.2652 22.1054 41.5196 22.2929 41.7071C22.4804 41.8946 22.7348 42 23 42Z" fill="#5C9248"/>
<path d="M23 46H29C29.2652 46 29.5196 45.8946 29.7071 45.7071C29.8946 45.5196 30 45.2652 30 45C30 44.7348 29.8946 44.4804 29.7071 44.2929C29.5196 44.1054 29.2652 44 29 44H23C22.7348 44 22.4804 44.1054 22.2929 44.2929C22.1054 44.4804 22 44.7348 22 45C22 45.2652 22.1054 45.5196 22.2929 45.7071C22.4804 45.8946 22.7348 46 23 46Z" fill="#5C9248"/>
<path d="M47 50H23C22.7348 50 22.4804 50.1054 22.2929 50.2929C22.1054 50.4804 22 50.7348 22 51C22 51.2652 22.1054 51.5196 22.2929 51.7071C22.4804 51.8946 22.7348 52 23 52H47C47.2652 52 47.5196 51.8946 47.7071 51.7071C47.8946 51.5196 48 51.2652 48 51C48 50.7348 47.8946 50.4804 47.7071 50.2929C47.5196 50.1054 47.2652 50 47 50Z" fill="#5C9248"/>
<path d="M23 56H37C37.2652 56 37.5196 55.8946 37.7071 55.7071C37.8946 55.5196 38 55.2652 38 55C38 54.7348 37.8946 54.4804 37.7071 54.2929C37.5196 54.1054 37.2652 54 37 54H23C22.7348 54 22.4804 54.1054 22.2929 54.2929C22.1054 54.4804 22 54.7348 22 55C22 55.2652 22.1054 55.5196 22.2929 55.7071C22.4804 55.8946 22.7348 56 23 56Z" fill="#5C9248"/>
<path d="M23 60H29C29.2652 60 29.5196 59.8946 29.7071 59.7071C29.8946 59.5196 30 59.2652 30 59C30 58.7348 29.8946 58.4804 29.7071 58.2929C29.5196 58.1054 29.2652 58 29 58H23C22.7348 58 22.4804 58.1054 22.2929 58.2929C22.1054 58.4804 22 58.7348 22 59C22 59.2652 22.1054 59.5196 22.2929 59.7071C22.4804 59.8946 22.7348 60 23 60Z" fill="#5C9248"/>
<path d="M83 50H51C50.7348 50 50.4804 50.1054 50.2929 50.2929C50.1054 50.4804 50 50.7348 50 51V81C50 81.2652 50.1054 81.5196 50.2929 81.7071C50.4804 81.8946 50.7348 82 51 82H83C83.2652 82 83.5196 81.8946 83.7071 81.7071C83.8946 81.5196 84 81.2652 84 81V51C84 50.7348 83.8946 50.4804 83.7071 50.2929C83.5196 50.1054 83.2652 50 83 50ZM82 58H73V52H82V58ZM71 52V62.9194L67.6245 60.2194C67.4473 60.0775 67.227 60.0002 67 60.0002C66.773 60.0002 66.5527 60.0775 66.3755 60.2194L63 62.9194V52H71ZM61 52V58H52V52H61ZM52 80V60H61V65C61 65.1883 61.0533 65.3728 61.1535 65.5322C61.2538 65.6916 61.3971 65.8195 61.5668 65.9011C61.7365 65.9827 61.9259 66.0146 62.113 65.9934C62.3001 65.9721 62.4774 65.8984 62.6245 65.7808L67 62.2808L71.3755 65.7808C71.5226 65.8984 71.6999 65.9721 71.887 65.9934C72.0741 66.0146 72.2635 65.9827 72.4332 65.9011C72.6029 65.8195 72.7462 65.6916 72.8465 65.5322C72.9467 65.3728 73 65.1883 73 65V60H82V80H52Z" fill="#5C9248"/>
<path d="M66 73H55C54.7348 73 54.4804 73.1054 54.2929 73.2929C54.1054 73.4804 54 73.7348 54 74C54 74.2652 54.1054 74.5196 54.2929 74.7071C54.4804 74.8946 54.7348 75 55 75H66C66.2652 75 66.5196 74.8946 66.7071 74.7071C66.8946 74.5196 67 74.2652 67 74C67 73.7348 66.8946 73.4804 66.7071 73.2929C66.5196 73.1054 66.2652 73 66 73Z" fill="#5C9248"/>
<path d="M60 76H55C54.7348 76 54.4804 76.1054 54.2929 76.2929C54.1054 76.4804 54 76.7348 54 77C54 77.2652 54.1054 77.5196 54.2929 77.7071C54.4804 77.8946 54.7348 78 55 78H60C60.2652 78 60.5196 77.8946 60.7071 77.7071C60.8946 77.5196 61 77.2652 61 77C61 76.7348 60.8946 76.4804 60.7071 76.2929C60.5196 76.1054 60.2652 76 60 76Z" fill="#5C9248"/>
<path d="M12 75H9C8.73478 75 8.48043 75.1054 8.29289 75.2929C8.10536 75.4804 8 75.7348 8 76C8 76.2652 8.10536 76.5196 8.29289 76.7071C8.48043 76.8946 8.73478 77 9 77H12C12.2652 77 12.5196 76.8946 12.7071 76.7071C12.8946 76.5196 13 76.2652 13 76C13 75.7348 12.8946 75.4804 12.7071 75.2929C12.5196 75.1054 12.2652 75 12 75Z" fill="#5C9248"/>
<path d="M47 71H16C15.7348 71 15.4804 71.1054 15.2929 71.2929C15.1054 71.4804 15 71.7348 15 72C15 72.2652 15.1054 72.5196 15.2929 72.7071C15.4804 72.8946 15.7348 73 16 73H47C47.2652 73 47.5196 72.8946 47.7071 72.7071C47.8946 72.5196 48 72.2652 48 72C48 71.7348 47.8946 71.4804 47.7071 71.2929C47.5196 71.1054 47.2652 71 47 71Z" fill="#5C9248"/>
<path d="M12 71H9C8.73478 71 8.48043 71.1054 8.29289 71.2929C8.10536 71.4804 8 71.7348 8 72C8 72.2652 8.10536 72.5196 8.29289 72.7071C8.48043 72.8946 8.73478 73 9 73H12C12.2652 73 12.5196 72.8946 12.7071 72.7071C12.8946 72.5196 13 72.2652 13 72C13 71.7348 12.8946 71.4804 12.7071 71.2929C12.5196 71.1054 12.2652 71 12 71Z" fill="#5C9248"/>
<path d="M47 67H16C15.7348 67 15.4804 67.1054 15.2929 67.2929C15.1054 67.4804 15 67.7348 15 68C15 68.2652 15.1054 68.5196 15.2929 68.7071C15.4804 68.8946 15.7348 69 16 69H47C47.2652 69 47.5196 68.8946 47.7071 68.7071C47.8946 68.5196 48 68.2652 48 68C48 67.7348 47.8946 67.4804 47.7071 67.2929C47.5196 67.1054 47.2652 67 47 67Z" fill="#5C9248"/>
<path d="M12 67H9C8.73478 67 8.48043 67.1054 8.29289 67.2929C8.10536 67.4804 8 67.7348 8 68C8 68.2652 8.10536 68.5196 8.29289 68.7071C8.48043 68.8946 8.73478 69 9 69H12C12.2652 69 12.5196 68.8946 12.7071 68.7071C12.8946 68.5196 13 68.2652 13 68C13 67.7348 12.8946 67.4804 12.7071 67.2929C12.5196 67.1054 12.2652 67 12 67Z" fill="#5C9248"/>
</symbol><symbol viewBox="0 0 86 86" fill="none" id="request2" xmlns="http://www.w3.org/2000/svg">
<path d="M85 56H80V5C80 4.73478 79.8946 4.48043 79.7071 4.29289C79.5196 4.10536 79.2652 4 79 4H47C46.7348 4 46.4804 4.10536 46.2929 4.29289C46.1054 4.48043 46 4.73478 46 5V56H38.2045L40.9824 41.1846C41.0096 41.0402 41.0047 40.8915 40.9679 40.7493C40.9311 40.607 40.8634 40.4745 40.7696 40.3614C40.6758 40.2483 40.5582 40.1573 40.4251 40.0948C40.2921 40.0323 40.147 40 40 40H38V33.2793C37.9974 32.124 37.5959 31.005 36.8634 30.1115C36.131 29.2181 35.1124 28.605 33.98 28.376L28 27.18V24.4783C29.624 23.3868 30.8498 21.7978 31.4933 19.95C32.4587 19.8319 33.3478 19.3654 33.9935 18.638C34.6392 17.9107 34.9971 16.9726 35 16C34.9991 15.2046 34.6828 14.4421 34.1204 13.8796C33.5579 13.3172 32.7954 13.0009 32 13V9C32 6.61305 31.0518 4.32387 29.364 2.63604C27.6761 0.948212 25.3869 0 23 0C20.6131 0 18.3239 0.948212 16.636 2.63604C14.9482 4.32387 14 6.61305 14 9V13C13.2046 13.0009 12.4421 13.3172 11.8796 13.8796C11.3172 14.4421 11.0009 15.2046 11 16C11.0029 16.9726 11.3608 17.9107 12.0065 18.638C12.6522 19.3654 13.5413 19.8319 14.5067 19.95C15.1502 21.7978 16.376 23.3868 18 24.4783V27.18L12.02 28.376C10.8876 28.605 9.86904 29.2181 9.13655 30.1115C8.40406 31.005 8.00258 32.124 8 33.2793V40H6C5.85304 40 5.70788 40.0323 5.57485 40.0948C5.44183 40.1573 5.32422 40.2483 5.23041 40.3614C5.1366 40.4745 5.06889 40.607 5.0321 40.7493C4.99532 40.8915 4.99037 41.0402 5.0176 41.1846L7.7955 56H1C0.734784 56 0.48043 56.1054 0.292893 56.2929C0.105357 56.4804 0 56.7348 0 57V63C0 63.2652 0.105357 63.5196 0.292893 63.7071C0.48043 63.8946 0.734784 64 1 64H4V85C4 85.2652 4.10536 85.5196 4.29289 85.7071C4.48043 85.8946 4.73478 86 5 86C5.26522 86 5.51957 85.8946 5.70711 85.7071C5.89464 85.5196 6 85.2652 6 85V64H80V85C80 85.2652 80.1054 85.5196 80.2929 85.7071C80.4804 85.8946 80.7348 86 81 86C81.2652 86 81.5196 85.8946 81.7071 85.7071C81.8946 85.5196 82 85.2652 82 85V64H85C85.2652 64 85.5196 63.8946 85.7071 63.7071C85.8946 63.5196 86 63.2652 86 63V57C86 56.7348 85.8946 56.4804 85.7071 56.2929C85.5196 56.1054 85.2652 56 85 56ZM66 39V42L63.6 40.2C63.4271 40.0701 63.2167 39.9998 63.0004 39.9998C62.7841 39.9998 62.5737 40.0701 62.4008 40.2L60 42V32H66V39ZM48 14H58V18C58 18.1857 58.0517 18.3678 58.1493 18.5257C58.247 18.6837 58.3867 18.8114 58.5528 18.8944C58.7189 18.9775 58.9048 19.0126 59.0898 18.996C59.2748 18.9793 59.4514 18.9114 59.6 18.8L63 16.25L66.4 18.8C66.5486 18.9114 66.7252 18.9793 66.9102 18.996C67.0952 19.0126 67.2811 18.9775 67.4472 18.8944C67.6133 18.8114 67.753 18.6837 67.8507 18.5257C67.9483 18.3678 68 18.1857 68 18V14H78V30H48V14ZM48 32H58V38H48V32ZM68 32H78V38H68V32ZM78 12H68V6H78V12ZM66 16L63.6 14.2C63.4271 14.0701 63.2167 13.9998 63.0004 13.9998C62.7841 13.9998 62.5737 14.0701 62.4008 14.2L60 16V6H66V16ZM48 6H58V12H48V6ZM48 40H58V44C58 44.1857 58.0517 44.3678 58.1493 44.5257C58.247 44.6837 58.3867 44.8114 58.5528 44.8944C58.7189 44.9775 58.9048 45.0126 59.0898 44.996C59.2748 44.9793 59.4514 44.9114 59.6 44.8L63 42.25L66.4 44.8C66.5486 44.9114 66.7252 44.9793 66.9102 44.996C67.0952 45.0126 67.2811 44.9775 67.4472 44.8944C67.6133 44.8114 67.753 44.6837 67.8507 44.5257C67.9483 44.3678 68 44.1857 68 44V40H78V56H48V40ZM27.7186 12.7089C26.2504 11.9868 24.6361 11.6113 23 11.6113C21.3639 11.6113 19.7496 11.9868 18.2814 12.7089L17.0929 11.1244L16.5461 10.3952C18.5831 9.51181 20.7797 9.056 23 9.056C25.2203 9.056 27.4169 9.51181 29.4539 10.3952L28.9071 11.1244L27.7186 12.7089ZM33 16C33 16.351 32.9076 16.6958 32.732 16.9997C32.5565 17.3037 32.304 17.556 32 17.7314V15C32.2652 15.0002 32.5194 15.1056 32.7069 15.2931C32.8944 15.4806 32.9998 15.7348 33 16ZM23 2C24.7539 2.00286 26.4429 2.66341 27.7334 3.85116C29.0239 5.03891 29.822 6.66747 29.97 8.4151C25.5043 6.5798 20.4949 6.5798 16.0292 8.4151C16.1772 6.66733 16.9754 5.03866 18.2661 3.85089C19.5567 2.66312 21.246 2.00265 23 2ZM14 17.7314C13.696 17.556 13.4435 17.3037 13.268 16.9997C13.0924 16.6958 13 16.351 13 16C13.0002 15.7348 13.1056 15.4806 13.2931 15.2931C13.4806 15.1056 13.7348 15.0002 14 15V17.7314ZM16 17V13L17.2 14.6C17.2747 14.6999 17.3674 14.7848 17.4734 14.8506C17.6302 14.9454 17.8097 14.9961 17.9929 14.9974C18.1761 14.9986 18.3563 14.9505 18.5144 14.8579C19.873 14.0571 21.4213 13.6347 22.9983 13.6345C24.5754 13.6342 26.1237 14.0562 27.4826 14.8566C27.6966 14.9783 27.9472 15.0194 28.1888 14.9723C28.4305 14.9253 28.6473 14.7932 28.8 14.6L30 13V17C30 18.8565 29.2625 20.637 27.9497 21.9497C26.637 23.2625 24.8565 24 23 24C21.1435 24 19.363 23.2625 18.0503 21.9497C16.7375 20.637 16 18.8565 16 17ZM23 26C24.0227 25.9979 25.0374 25.8203 26 25.475V28C26 28.7956 25.6839 29.5587 25.1213 30.1213C24.5587 30.6839 23.7956 31 23 31C22.2044 31 21.4413 30.6839 20.8787 30.1213C20.3161 29.5587 20 28.7956 20 28V25.475C20.9626 25.8203 21.9773 25.9979 23 26ZM10 33.2793C10.0015 32.586 10.2423 31.9145 10.6818 31.3784C11.1214 30.8422 11.7326 30.4743 12.4121 30.3369L18.1436 29.1914C18.4103 30.2781 19.0337 31.2439 19.9141 31.9344C20.7945 32.6248 21.8811 33.0001 23 33.0001C24.1189 33.0001 25.2055 32.6248 26.0859 31.9344C26.9663 31.2439 27.5897 30.2781 27.8564 29.1914L33.5879 30.3369C34.2674 30.4743 34.8786 30.8422 35.3182 31.3784C35.7577 31.9145 35.9985 32.586 36 33.2793V40H32V37C32 36.7348 31.8946 36.4804 31.7071 36.2929C31.5196 36.1054 31.2652 36 31 36C30.7348 36 30.4804 36.1054 30.2929 36.2929C30.1054 36.4804 30 36.7348 30 37V40H16V37C16 36.7348 15.8946 36.4804 15.7071 36.2929C15.5196 36.1054 15.2652 36 15 36C14.7348 36 14.4804 36.1054 14.2929 36.2929C14.1054 36.4804 14 36.7348 14 37V40H10V33.2793ZM7.2051 42H38.7951L36.17 56H9.83L7.2051 42ZM84 62H2V58H84V62Z" fill="#5C9248"/>
<path d="M23 46C22.4067 46 21.8266 46.1759 21.3333 46.5056C20.8399 46.8352 20.4554 47.3038 20.2284 47.852C20.0013 48.4001 19.9419 49.0033 20.0576 49.5853C20.1734 50.1672 20.4591 50.7018 20.8787 51.1213C21.2982 51.5409 21.8328 51.8266 22.4147 51.9424C22.9967 52.0581 23.5999 51.9987 24.1481 51.7716C24.6962 51.5446 25.1648 51.1601 25.4944 50.6667C25.8241 50.1734 26 49.5933 26 49C25.9991 48.2046 25.6828 47.4421 25.1204 46.8796C24.5579 46.3172 23.7954 46.0009 23 46ZM23 50C22.8022 50 22.6089 49.9414 22.4444 49.8315C22.28 49.7216 22.1518 49.5654 22.0761 49.3827C22.0004 49.2 21.9806 48.9989 22.0192 48.8049C22.0578 48.6109 22.153 48.4327 22.2929 48.2929C22.4327 48.153 22.6109 48.0578 22.8049 48.0192C22.9989 47.9806 23.2 48.0004 23.3827 48.0761C23.5654 48.1518 23.7216 48.28 23.8315 48.4444C23.9414 48.6089 24 48.8022 24 49C23.9998 49.2652 23.8944 49.5194 23.7069 49.7069C23.5194 49.8944 23.2652 49.9998 23 50Z" fill="#5C9248"/>
<path d="M62 49H51C50.7348 49 50.4804 49.1054 50.2929 49.2929C50.1054 49.4804 50 49.7348 50 50C50 50.2652 50.1054 50.5196 50.2929 50.7071C50.4804 50.8946 50.7348 51 51 51H62C62.2652 51 62.5196 50.8946 62.7071 50.7071C62.8946 50.5196 63 50.2652 63 50C63 49.7348 62.8946 49.4804 62.7071 49.2929C62.5196 49.1054 62.2652 49 62 49Z" fill="#5C9248"/>
<path d="M56 52H51C50.7348 52 50.4804 52.1054 50.2929 52.2929C50.1054 52.4804 50 52.7348 50 53C50 53.2652 50.1054 53.5196 50.2929 53.7071C50.4804 53.8946 50.7348 54 51 54H56C56.2652 54 56.5196 53.8946 56.7071 53.7071C56.8946 53.5196 57 53.2652 57 53C57 52.7348 56.8946 52.4804 56.7071 52.2929C56.5196 52.1054 56.2652 52 56 52Z" fill="#5C9248"/>
<path d="M51 25H62C62.2652 25 62.5196 24.8946 62.7071 24.7071C62.8946 24.5196 63 24.2652 63 24C63 23.7348 62.8946 23.4804 62.7071 23.2929C62.5196 23.1054 62.2652 23 62 23H51C50.7348 23 50.4804 23.1054 50.2929 23.2929C50.1054 23.4804 50 23.7348 50 24C50 24.2652 50.1054 24.5196 50.2929 24.7071C50.4804 24.8946 50.7348 25 51 25Z" fill="#5C9248"/>
<path d="M56 26H51C50.7348 26 50.4804 26.1054 50.2929 26.2929C50.1054 26.4804 50 26.7348 50 27C50 27.2652 50.1054 27.5196 50.2929 27.7071C50.4804 27.8946 50.7348 28 51 28H56C56.2652 28 56.5196 27.8946 56.7071 27.7071C56.8946 27.5196 57 27.2652 57 27C57 26.7348 56.8946 26.4804 56.7071 26.2929C56.5196 26.1054 56.2652 26 56 26Z" fill="#5C9248"/>
</symbol><symbol viewBox="0 0 87 87" fill="none" id="request3" xmlns="http://www.w3.org/2000/svg">
<path d="M47 45V19C47 18.7348 46.8946 18.4804 46.7071 18.2929C46.5196 18.1054 46.2652 18 46 18H18C17.7348 18 17.4804 18.1054 17.2929 18.2929C17.1054 18.4804 17 18.7348 17 19V45C17 45.2652 17.1054 45.5196 17.2929 45.7071C17.4804 45.8946 17.7348 46 18 46H46C46.2652 46 46.5196 45.8946 46.7071 45.7071C46.8946 45.5196 47 45.2652 47 45ZM45 25H37V20H45V25ZM35 20V28.3818L32.4473 27.1055C32.3084 27.0361 32.1553 27 32 27C31.8447 27 31.6916 27.0361 31.5527 27.1055L29 28.3818V20H35ZM27 20V25H19V20H27ZM19 44V27H27V30C27 30.1705 27.0435 30.3381 27.1265 30.487C27.2096 30.6359 27.3292 30.7611 27.4743 30.8508C27.6193 30.9404 27.7848 30.9915 27.9551 30.9991C28.1254 31.0068 28.2948 30.9708 28.4473 30.8945L32 29.1182L35.5527 30.8945C35.7052 30.9708 35.8746 31.0068 36.0449 30.9991C36.2152 30.9915 36.3807 30.9404 36.5257 30.8508C36.6708 30.7611 36.7904 30.6359 36.8735 30.487C36.9565 30.3381 37 30.1705 37 30V27H45V44H19Z" fill="#5C9248"/>
<path d="M58 32C58 26.8577 56.4751 21.8309 53.6182 17.5552C50.7613 13.2795 46.7007 9.94702 41.9498 7.97914C37.1989 6.01127 31.9712 5.49638 26.9277 6.49959C21.8842 7.50281 17.2514 9.97907 13.6152 13.6152C9.97907 17.2514 7.50281 21.8842 6.49959 26.9277C5.49638 31.9712 6.01127 37.1989 7.97914 41.9498C9.94702 46.7007 13.2795 50.7613 17.5552 53.6182C21.8309 56.4751 26.8577 58 32 58C38.8933 57.9923 45.502 55.2505 50.3763 50.3763C55.2505 45.502 57.9923 38.8933 58 32ZM8.00001 32C8.00001 27.2533 9.40759 22.6131 12.0447 18.6663C14.6819 14.7195 18.4302 11.6434 22.8156 9.8269C27.201 8.0104 32.0266 7.53512 36.6822 8.46116C41.3377 9.38721 45.6141 11.673 48.9706 15.0294C52.327 18.3859 54.6128 22.6623 55.5389 27.3178C56.4649 31.9734 55.9896 36.799 54.1731 41.1844C52.3566 45.5698 49.2805 49.3181 45.3337 51.9553C41.3869 54.5924 36.7468 56 32 56C25.6371 55.9927 19.5368 53.4618 15.0375 48.9625C10.5382 44.4632 8.00729 38.363 8.00001 32Z" fill="#5C9248"/>
<path d="M30 37H22C21.7348 37 21.4804 37.1054 21.2929 37.2929C21.1054 37.4804 21 37.7348 21 38C21 38.2652 21.1054 38.5196 21.2929 38.7071C21.4804 38.8946 21.7348 39 22 39H30C30.2652 39 30.5196 38.8946 30.7071 38.7071C30.8946 38.5196 31 38.2652 31 38C31 37.7348 30.8946 37.4804 30.7071 37.2929C30.5196 37.1054 30.2652 37 30 37Z" fill="#5C9248"/>
<path d="M26 40H22C21.7348 40 21.4804 40.1054 21.2929 40.2929C21.1054 40.4804 21 40.7348 21 41C21 41.2652 21.1054 41.5196 21.2929 41.7071C21.4804 41.8946 21.7348 42 22 42H26C26.2652 42 26.5196 41.8946 26.7071 41.7071C26.8946 41.5196 27 41.2652 27 41C27 40.7348 26.8946 40.4804 26.7071 40.2929C26.5196 40.1054 26.2652 40 26 40Z" fill="#5C9248"/>
<path d="M83.8076 68.3936L67.707 52.293C67.6142 52.2001 67.5039 52.1264 67.3826 52.0761C67.2613 52.0258 67.1313 52 67 52C66.8687 52 66.7386 52.0258 66.6173 52.0761C66.496 52.1264 66.3858 52.2001 66.293 52.293L64 54.5859L58.1034 48.6893C62.2291 42.2425 63.8278 34.4989 62.5926 26.9453C61.3574 19.3917 57.3754 12.5606 51.4111 7.76373C45.4468 2.96687 37.9208 0.542356 30.278 0.955745C22.6353 1.36913 15.4146 4.59128 10.0025 10.0035C4.59044 15.4157 1.36845 22.6364 0.955221 30.2792C0.541995 37.9219 2.96666 45.4479 7.76365 51.4121C12.5606 57.3763 19.3918 61.3582 26.9454 62.5932C34.499 63.8282 42.2427 62.2293 48.6894 58.1035L54.5859 64L52.293 66.293C52.2001 66.3858 52.1264 66.496 52.0761 66.6173C52.0258 66.7387 51.9999 66.8687 51.9999 67C51.9999 67.1313 52.0258 67.2613 52.0761 67.3827C52.1264 67.504 52.2001 67.6142 52.293 67.707L68.3936 83.8076C69.4057 84.8197 70.6072 85.6225 71.9296 86.1703C73.2519 86.718 74.6693 86.9999 76.1006 86.9999C77.5319 86.9999 78.9492 86.718 80.2716 86.1703C81.5939 85.6225 82.7955 84.8197 83.8076 83.8076C84.8197 82.7955 85.6225 81.594 86.1702 80.2716C86.718 78.9492 86.9999 77.5319 86.9999 76.1006C86.9999 74.6693 86.718 73.252 86.1702 71.9296C85.6225 70.6072 84.8197 69.4057 83.8076 68.3936ZM2.99997 32C2.99997 26.2643 4.70079 20.6575 7.88735 15.8885C11.0739 11.1194 15.6031 7.40244 20.9021 5.20749C26.2012 3.01255 32.0321 2.43826 37.6576 3.55723C43.283 4.6762 48.4503 7.43818 52.5061 11.4939C56.5618 15.5496 59.3238 20.7169 60.4427 26.3424C61.5617 31.9678 60.9874 37.7988 58.7925 43.0978C56.5975 48.3969 52.8805 52.9261 48.1115 56.1126C43.3425 59.2992 37.7356 61 32 61C24.3114 60.9913 16.9401 57.9332 11.5035 52.4965C6.06678 47.0598 3.00865 39.6886 2.99997 32ZM50.377 56.9629C52.8709 55.0882 55.0881 52.8713 56.9629 50.3774L62.5859 56L56 62.5859L50.377 56.9629ZM82.3936 82.3936C80.7231 84.0598 78.46 84.9955 76.1006 84.9955C73.7412 84.9955 71.4781 84.0598 69.8076 82.3936L54.4141 67L67 54.4141L82.3936 69.8076C84.0625 71.4767 85.0001 73.7403 85.0001 76.1006C85.0001 78.4609 84.0625 80.7245 82.3936 82.3936Z" fill="#5C9248"/>
</symbol><symbol viewBox="0 0 14 14" fill="none" id="search" xmlns="http://www.w3.org/2000/svg">
<path d="M13 13L10.1 10.1M11.6667 6.33333C11.6667 9.27885 9.27885 11.6667 6.33333 11.6667C3.38781 11.6667 1 9.27885 1 6.33333C1 3.38781 3.38781 1 6.33333 1C9.27885 1 11.6667 3.38781 11.6667 6.33333Z" stroke="#090D0B" stroke-width="1.6" stroke-linecap="round" stroke-linejoin="round"/>
</symbol><symbol viewBox="0 0 16 16" fill="none" id="sort1" xmlns="http://www.w3.org/2000/svg">
<path d="M8.35156 3.89844L7.64844 4.60156L5.00781 1.96875L5 16H4L4.00781 1.94531L1.35156 4.60156L0.648438 3.89844L4.5 0.046875L8.35156 3.89844ZM14.6562 11.3984L15.3672 12.1016L11.5156 15.9531L7.65625 12.1016L8.36719 11.3984L11.0078 14.0391L11 0H12L12.0078 14.0469L14.6562 11.3984Z" fill="#090D0B"/>
</symbol><symbol viewBox="0 0 26 18" fill="none" id="sort2" xmlns="http://www.w3.org/2000/svg">
<path d="M7.66667 1H25M7.66667 9H25M7.66667 17H25M1 1H1.01333M1 9H1.01333M1 17H1.01333" stroke="#1E1E1E" stroke-width="1.5" stroke-linecap="round" stroke-linejoin="round"/>
</symbol><symbol viewBox="0 0 10 10" fill="none" id="star" xmlns="http://www.w3.org/2000/svg">
<path d="M5 0L6.545 3.13L10 3.635L7.5 6.07L8.09 9.51L5 7.885L1.91 9.51L2.5 6.07L0 3.635L3.455 3.13L5 0Z" fill="#FFCC00"/>
</symbol><symbol viewBox="0 0 24 26" fill="none" id="user" xmlns="http://www.w3.org/2000/svg">
<path d="M22.6668 25V22.3333C22.6668 20.9188 22.1049 19.5623 21.1047 18.5621C20.1045 17.5619 18.748 17 17.3335 17H6.66683C5.25234 17 3.89579 17.5619 2.89559 18.5621C1.8954 19.5623 1.3335 20.9188 1.3335 22.3333V25M17.3335 6.33333C17.3335 9.27885 14.9457 11.6667 12.0002 11.6667C9.05464 11.6667 6.66683 9.27885 6.66683 6.33333C6.66683 3.38781 9.05464 1 12.0002 1C14.9457 1 17.3335 3.38781 17.3335 6.33333Z" stroke="white" stroke-width="2" stroke-linecap="round" stroke-linejoin="round"/>
</symbol></svg>